<mxfile host="app.diagrams.net" agent="Mozilla/5.0 (X11; Linux x86_64) AppleWebKit/537.36 (KHTML, like Gecko) Chrome/128.0.0.0 Safari/537.36" version="24.7.14">
  <diagram name="PÃ¡gina-1" id="VAqHc9G3c2qmCrzL8BHz">
    <mxGraphModel dx="2191" dy="1962" grid="1" gridSize="10" guides="1" tooltips="1" connect="1" arrows="1" fold="1" page="1" pageScale="1" pageWidth="827" pageHeight="1169" math="0" shadow="0">
      <root>
        <mxCell id="0" />
        <mxCell id="1" parent="0" />
        <mxCell id="JyDE84X1tgH7piTENRlM-37" value="" style="shape=flexArrow;endArrow=classic;startArrow=classic;html=1;rounded=0;fillColor=#fa6800;strokeColor=#C73500;" edge="1" parent="1">
          <mxGeometry width="100" height="100" relative="1" as="geometry">
            <mxPoint x="180" y="-370" as="sourcePoint" />
            <mxPoint x="240" y="-400" as="targetPoint" />
          </mxGeometry>
        </mxCell>
        <mxCell id="5xbZvHs5uC8VFUTsJ7Bx-1" value="SERVER" style="image;html=1;image=img/lib/clip_art/computers/Server_Tower_128x128.png" vertex="1" parent="1">
          <mxGeometry x="330" y="-620" width="216" height="220" as="geometry" />
        </mxCell>
        <mxCell id="5xbZvHs5uC8VFUTsJ7Bx-2" value="CLIENT 1" style="shape=image;editableCssRules=.*;verticalLabelPosition=bottom;labelBackgroundColor=default;verticalAlign=top;aspect=fixed;imageAspect=0;image=data:image/svg+xml,PHN2ZyB4bWxucz0iaHR0cDovL3d3dy53My5vcmcvMjAwMC9zdmciIHZpZXdCb3g9Ii0wLjUgLTAuNSAyOCAxOC42NDgiIGhlaWdodD0iMTguNjQ4IiB3aWR0aD0iMjgiPiYjeGE7CSAgPHN0eWxlIHR5cGU9InRleHQvY3NzIj4uc3QwIHsgc3RvcC1jb2xvcjogcmdiKDkxLCAxMTUsIDEzOSk7IH0gLnN0MSB7IHN0b3AtY29sb3I6IHJnYigzNCwgNTMsIDcyKTsgfSA8L3N0eWxlPiYjeGE7CTxkZWZzPiYjeGE7CQk8bGluZWFyR3JhZGllbnQgZ3JhZGllbnRVbml0cz0idXNlclNwYWNlT25Vc2UiIHkyPSIyMi4xNDUiIHgyPSIxNS4xMDIiIHkxPSIyLjE0NyIgeDE9IjIuMDM5IiBpZD0iQSI+JiN4YTsJCQk8c3RvcCBjbGFzcz0ic3QwIi8+JiN4YTsJCQk8c3RvcCBjbGFzcz0ic3QxIiBvZmZzZXQ9IjEiLz4mI3hhOwkJPC9saW5lYXJHcmFkaWVudD4mI3hhOwk8L2RlZnM+JiN4YTsJPHBhdGggZmlsbD0idXJsKCNBKSIgZD0iTTI2LjM1MSAxNS44NTFjLjc2NiAwIDEuMTQ5LjM4MyAxLjE0OSAxLjE0OXMtLjM4MyAxLjE0OC0xLjE0OSAxLjE0OEguNjQ4Yy0uMzI4IDAtLjYwMi0uMDkxLS44Mi0uMjczQy0uMzkxIDE3LjY1Ni0uNSAxNy4zNjQtLjUgMTdzLjEwOS0uNjM4LjMyOC0uODJjLjIxOS0uMjE5LjQ5Mi0uMzI4LjgyLS4zMjhIMi4wN2MwLS4wNzMtLjAxOC0uMTI4LS4wNTUtLjE2NHYtLjA1NWMtLjEwOS0uMzI4LS4xNjQtLjY1Ni0uMTY0LS45ODRWM2MwLS45ODQuMzI4LTEuODA1Ljk4NC0yLjQ2MUMzLjQ5Mi0uMTU0IDQuMzMxLS41IDUuMzUyLS41aDE2LjI5N2MxLjAyMSAwIDEuODU5LjM0NiAyLjUxNiAxLjAzOS42NTYuNjU2Ljk4NCAxLjQ3Ny45ODQgMi40NjF2MTEuNjQ4YzAgLjQwMS0uMDczLjgwMi0uMjE5IDEuMjAzek00LjE0OCAxNC42NDhoMTguNzAzVjNjMC0uNzY2LS40MDEtMS4xNDgtMS4yMDMtMS4xNDhINS4zNTJjLS44MDIgMC0xLjIwMy4zODMtMS4yMDMgMS4xNDh6Ii8+JiN4YTs8L3N2Zz4=;" vertex="1" parent="1">
          <mxGeometry x="-80" y="-720" width="122.31" height="83" as="geometry" />
        </mxCell>
        <mxCell id="5xbZvHs5uC8VFUTsJ7Bx-3" value="CLIENT 2" style="shape=image;editableCssRules=.*;verticalLabelPosition=bottom;labelBackgroundColor=default;verticalAlign=top;aspect=fixed;imageAspect=0;image=data:image/svg+xml,PHN2ZyB4bWxucz0iaHR0cDovL3d3dy53My5vcmcvMjAwMC9zdmciIHZpZXdCb3g9Ii0wLjUgLTAuNSAyOCAxOC42NDgiIGhlaWdodD0iMTguNjQ4IiB3aWR0aD0iMjgiPiYjeGE7CSAgPHN0eWxlIHR5cGU9InRleHQvY3NzIj4uc3QwIHsgc3RvcC1jb2xvcjogcmdiKDkxLCAxMTUsIDEzOSk7IH0gLnN0MSB7IHN0b3AtY29sb3I6IHJnYigzNCwgNTMsIDcyKTsgfSA8L3N0eWxlPiYjeGE7CTxkZWZzPiYjeGE7CQk8bGluZWFyR3JhZGllbnQgZ3JhZGllbnRVbml0cz0idXNlclNwYWNlT25Vc2UiIHkyPSIyMi4xNDUiIHgyPSIxNS4xMDIiIHkxPSIyLjE0NyIgeDE9IjIuMDM5IiBpZD0iQSI+JiN4YTsJCQk8c3RvcCBjbGFzcz0ic3QwIi8+JiN4YTsJCQk8c3RvcCBjbGFzcz0ic3QxIiBvZmZzZXQ9IjEiLz4mI3hhOwkJPC9saW5lYXJHcmFkaWVudD4mI3hhOwk8L2RlZnM+JiN4YTsJPHBhdGggZmlsbD0idXJsKCNBKSIgZD0iTTI2LjM1MSAxNS44NTFjLjc2NiAwIDEuMTQ5LjM4MyAxLjE0OSAxLjE0OXMtLjM4MyAxLjE0OC0xLjE0OSAxLjE0OEguNjQ4Yy0uMzI4IDAtLjYwMi0uMDkxLS44Mi0uMjczQy0uMzkxIDE3LjY1Ni0uNSAxNy4zNjQtLjUgMTdzLjEwOS0uNjM4LjMyOC0uODJjLjIxOS0uMjE5LjQ5Mi0uMzI4LjgyLS4zMjhIMi4wN2MwLS4wNzMtLjAxOC0uMTI4LS4wNTUtLjE2NHYtLjA1NWMtLjEwOS0uMzI4LS4xNjQtLjY1Ni0uMTY0LS45ODRWM2MwLS45ODQuMzI4LTEuODA1Ljk4NC0yLjQ2MUMzLjQ5Mi0uMTU0IDQuMzMxLS41IDUuMzUyLS41aDE2LjI5N2MxLjAyMSAwIDEuODU5LjM0NiAyLjUxNiAxLjAzOS42NTYuNjU2Ljk4NCAxLjQ3Ny45ODQgMi40NjF2MTEuNjQ4YzAgLjQwMS0uMDczLjgwMi0uMjE5IDEuMjAzek00LjE0OCAxNC42NDhoMTguNzAzVjNjMC0uNzY2LS40MDEtMS4xNDgtMS4yMDMtMS4xNDhINS4zNTJjLS44MDIgMC0xLjIwMy4zODMtMS4yMDMgMS4xNDh6Ii8+JiN4YTs8L3N2Zz4=;" vertex="1" parent="1">
          <mxGeometry x="-80" y="-570" width="122.31" height="83" as="geometry" />
        </mxCell>
        <mxCell id="5xbZvHs5uC8VFUTsJ7Bx-4" value="CLIENT 3" style="shape=image;editableCssRules=.*;verticalLabelPosition=bottom;labelBackgroundColor=default;verticalAlign=top;aspect=fixed;imageAspect=0;image=data:image/svg+xml,PHN2ZyB4bWxucz0iaHR0cDovL3d3dy53My5vcmcvMjAwMC9zdmciIHZpZXdCb3g9Ii0wLjUgLTAuNSAyOCAxOC42NDgiIGhlaWdodD0iMTguNjQ4IiB3aWR0aD0iMjgiPiYjeGE7CSAgPHN0eWxlIHR5cGU9InRleHQvY3NzIj4uc3QwIHsgc3RvcC1jb2xvcjogcmdiKDkxLCAxMTUsIDEzOSk7IH0gLnN0MSB7IHN0b3AtY29sb3I6IHJnYigzNCwgNTMsIDcyKTsgfSA8L3N0eWxlPiYjeGE7CTxkZWZzPiYjeGE7CQk8bGluZWFyR3JhZGllbnQgZ3JhZGllbnRVbml0cz0idXNlclNwYWNlT25Vc2UiIHkyPSIyMi4xNDUiIHgyPSIxNS4xMDIiIHkxPSIyLjE0NyIgeDE9IjIuMDM5IiBpZD0iQSI+JiN4YTsJCQk8c3RvcCBjbGFzcz0ic3QwIi8+JiN4YTsJCQk8c3RvcCBjbGFzcz0ic3QxIiBvZmZzZXQ9IjEiLz4mI3hhOwkJPC9saW5lYXJHcmFkaWVudD4mI3hhOwk8L2RlZnM+JiN4YTsJPHBhdGggZmlsbD0idXJsKCNBKSIgZD0iTTI2LjM1MSAxNS44NTFjLjc2NiAwIDEuMTQ5LjM4MyAxLjE0OSAxLjE0OXMtLjM4MyAxLjE0OC0xLjE0OSAxLjE0OEguNjQ4Yy0uMzI4IDAtLjYwMi0uMDkxLS44Mi0uMjczQy0uMzkxIDE3LjY1Ni0uNSAxNy4zNjQtLjUgMTdzLjEwOS0uNjM4LjMyOC0uODJjLjIxOS0uMjE5LjQ5Mi0uMzI4LjgyLS4zMjhIMi4wN2MwLS4wNzMtLjAxOC0uMTI4LS4wNTUtLjE2NHYtLjA1NWMtLjEwOS0uMzI4LS4xNjQtLjY1Ni0uMTY0LS45ODRWM2MwLS45ODQuMzI4LTEuODA1Ljk4NC0yLjQ2MUMzLjQ5Mi0uMTU0IDQuMzMxLS41IDUuMzUyLS41aDE2LjI5N2MxLjAyMSAwIDEuODU5LjM0NiAyLjUxNiAxLjAzOS42NTYuNjU2Ljk4NCAxLjQ3Ny45ODQgMi40NjF2MTEuNjQ4YzAgLjQwMS0uMDczLjgwMi0uMjE5IDEuMjAzek00LjE0OCAxNC42NDhoMTguNzAzVjNjMC0uNzY2LS40MDEtMS4xNDgtMS4yMDMtMS4xNDhINS4zNTJjLS44MDIgMC0xLjIwMy4zODMtMS4yMDMgMS4xNDh6Ii8+JiN4YTs8L3N2Zz4=;" vertex="1" parent="1">
          <mxGeometry x="-80" y="-410" width="122.31" height="83" as="geometry" />
        </mxCell>
        <mxCell id="5xbZvHs5uC8VFUTsJ7Bx-5" value="" style="shape=flexArrow;endArrow=classic;startArrow=classic;html=1;rounded=0;fillColor=#fa6800;strokeColor=#C73500;" edge="1" parent="1">
          <mxGeometry width="100" height="100" relative="1" as="geometry">
            <mxPoint x="190" y="-510.5" as="sourcePoint" />
            <mxPoint x="249" y="-510.5" as="targetPoint" />
          </mxGeometry>
        </mxCell>
        <mxCell id="5xbZvHs5uC8VFUTsJ7Bx-6" value="" style="shape=flexArrow;endArrow=classic;startArrow=classic;html=1;rounded=0;fillColor=#fa6800;strokeColor=#C73500;" edge="1" parent="1">
          <mxGeometry width="100" height="100" relative="1" as="geometry">
            <mxPoint x="190" y="-637" as="sourcePoint" />
            <mxPoint x="240" y="-597" as="targetPoint" />
          </mxGeometry>
        </mxCell>
      </root>
    </mxGraphModel>
  </diagram>
</mxfile>
